# xmcd
#
# Track frame offsets: 
#        150
#        18158
#        37157
#        54893
#        75221
#        94214
#        111802
#        129267
#        145665
#        165256
#        182453
#        196491
#        213167
#        227872
#        235879
#        251246
#        286982
#        297973
#        316099
#        333015
#
# Disc length: 4548 seconds
#
# Revision: 1
# Processed by: cddbd v1.5.1PL0 Copyright (c) Steve Scherf et al.
# Submitted via: ExactAudioCopy v0.95b3
#
DISCID=0511c214
DTITLE=Janis Joplin - Rock Collection
DYEAR=2001
DGENRE=Rock and Roll
TTITLE0=Summertime
TTITLE1=Place Of My Heart
TTITLE2=Cry Baby
TTITLE3=Me And Bobby McGee
TTITLE4=Misery N
TTITLE5=Half Moon
TTITLE6=Try
TTITLE7=Move Over
TTITLE8=Kozmik Blues
TTITLE9=Little Girls Blues
TTITLE10=Down On Me
TTITLE11=My Baby
TTITLE12=Trust Me
TTITLE13=Mercedes Benz
TTITLE14=Get In While You Can
TTITLE15=Ball And Chain
TTITLE16=Burled Alive In The Blues
TTITLE17=Maybe
TTITLE18=Rase Your Hand
TTITLE19=San Francisco Bayblues
EXTD=antic@pisem.net
EXTT0=
EXTT1=
EXTT2=
EXTT3=
EXTT4=
EXTT5=
EXTT6=
EXTT7=
EXTT8=
EXTT9=
EXTT10=
EXTT11=
EXTT12=
EXTT13=
EXTT14=
EXTT15=
EXTT16=
EXTT17=
EXTT18=
EXTT19=
PLAYORDER=
